<?xml version="1.0" encoding="utf-8" ?><svg xmlns="http://www.w3.org/2000/svg" xmlns:xlink="http://www.w3.org/1999/xlink" width="1344" height="768" viewBox="0 0 1344 768"><defs><linearGradient id="gradient_0" gradientUnits="userSpaceOnUse" x1="726.48828" y1="488.33649" x2="721.05914" y2="324.56525"><stop offset="0" stop-color="#EE5519"/><stop offset="1" stop-color="#F47B1C"/></linearGradient></defs><path fill="url(#gradient_0)" d="M669.712 325.129C694.5 324.551 720.971 324.665 745.357 324.986C786.071 325.523 831.998 314.556 816.806 374.218C806.054 416.447 793.595 426.963 750.56 426.937L714.043 426.826C691.345 426.723 692.876 428.18 688.422 449.125C723.739 449.652 760.409 449.166 795.827 449.19C794.657 457.596 788.782 479.082 786.489 488.396L778.641 488.428L628.36 488.492C631.86 475.001 635.209 461.073 638.457 447.614C643.788 425.522 648.444 403.432 670.917 392.275C682.827 386.362 694.777 387.303 707.683 387.329C718.749 387.255 729.816 387.312 740.88 387.499C746.918 387.563 754.504 388.078 760.278 386.592C766.171 385.075 769.042 372.93 767.051 368.088C762.861 364.264 734.981 365.609 727.951 365.616L659.995 365.632C662.92 352.524 666.247 338.025 669.712 325.129Z"/><path fill="#F1681B" d="M951.912 324.853C968.191 324.548 985.349 324.72 1001.64 324.813C994.574 350.022 987.908 379.316 981.387 404.986C985.688 404.904 999.83 403.977 1002.71 405.83L1002.65 407.937C999.842 420.006 996.645 432.272 993.642 444.317C986.287 444.486 978.429 444.337 971.034 444.328L960.26 488.364L910.752 488.425C914.589 474.067 918.179 458.776 921.795 444.303L811.934 444.422C812.988 439.718 820.452 407.122 822.275 404.623C839.36 381.205 863.956 347.158 881.049 324.938C896.967 324.299 916.81 324.817 933.024 324.82C913.746 351.669 893.361 378.021 874.331 404.95C892.898 404.413 912.744 404.772 931.422 404.675L951.912 324.853Z"/><path fill="#BC8B39" d="M629.344 389.873C630.98 389.8 631.891 389.543 633.188 390.366C633.543 396.46 625.335 420.011 623.668 427.501C619.599 443.836 612.194 458.072 600.609 470.175C573.195 498.812 529.305 492.955 492.953 492.983L393.846 493.323L399.809 472.119C401.509 465.659 409.218 434.826 411.255 430.825C419.637 426.887 419.319 433.109 424.77 437.537C436.377 446.965 447.424 447.364 461.573 446.13L459.688 452.584L510.876 452.589C520.332 452.587 530.335 453.137 539.7 452.07C561.099 449.634 565.61 440.016 571.305 422.131C581.431 425.152 590.139 425.888 600.023 422.181C613.817 417.007 620.745 405.773 625.399 392.604C626.102 390.617 627.527 390.472 629.344 389.873Z"/><path fill="#BC8B39" d="M578.09 347.345C580.428 347.187 582.772 347.133 585.115 347.182C595.415 347.382 602.938 351.158 609.953 358.446C592.867 363.402 561.441 362.5 588.212 395.595C590.254 398.12 614.636 391.462 619.193 390.489C617.262 396.638 615.279 401.296 611.043 406.302C605.336 413.13 597.081 417.32 588.203 417.895C574.085 418.864 565.539 411.554 555.776 403.009C545.55 404.066 490.881 411.35 485.267 415.181C474.261 422.693 481.053 432.83 458.355 439.721C445.389 442.402 435.016 437.417 425.71 428.773C430.228 427.365 452.331 422.929 455.133 418.666C459.888 411.43 450.145 388.441 440.668 390.119C433.794 391.337 422.67 394.727 414.13 396.393C420.49 374.991 437.664 363.776 460.132 370.929C467.119 373.154 472.149 378.096 477.391 382.995C487.713 382.861 501.832 379.93 512.386 378.539C522.489 377.208 533.647 375.548 543.633 373.656C551.327 372.198 553.826 365.959 557.492 359.865C562.242 351.971 569.499 349.402 578.09 347.345Z"/><path fill="#BC8B39" d="M559.861 317.372C593.276 317.25 634.572 311.2 639.374 355.464C632.445 356.718 625.486 357.803 618.504 358.72C604.65 338.315 578.174 333.705 558.201 349.212C554.811 351.844 552.581 354.948 549.998 358.328C536.887 358.685 522.769 358.475 509.578 358.524L486.599 358.729C484.771 364.8 482.775 370.93 480.866 376.985C465.38 362.838 452.801 357.886 432.118 365.069C436.769 349.832 441.17 333.018 445.582 317.567C482.719 316.761 522.449 317.482 559.861 317.372Z"/></svg>